<svg width="19" height="45" viewBox="0 0 19 45" fill="none" xmlns="http://www.w3.org/2000/svg">
<path d="M14.327 39.2172C13.927 38.8114 13.327 38.8114 12.927 39.2172L9.62696 42.5651L6.32695 39.2172C5.92695 38.8114 5.32695 38.8114 4.92695 39.2172C4.52695 39.623 4.52695 40.2317 4.92695 40.6375L8.92695 44.6956C9.12695 44.8985 9.37696 45 9.62696 45C9.87696 45 10.127 44.8985 10.327 44.6956L14.327 40.6375C14.727 40.2317 14.727 39.623 14.327 39.2172Z" fill="#003347"/>
<path d="M18.627 27.2458V18.1151C18.627 13.0932 14.577 8.98438 9.62695 8.98438C4.67695 8.98438 0.626953 13.0932 0.626953 18.1151V27.2458C0.626953 32.2677 4.67695 36.3765 9.62695 36.3765C14.577 36.3765 18.627 32.2677 18.627 27.2458ZM9.62695 34.3475C5.77695 34.3475 2.62695 31.1517 2.62695 27.2458V18.1151C2.62695 14.2092 5.77695 11.0134 9.62695 11.0134C13.477 11.0134 16.627 14.2092 16.627 18.1151V27.2458C16.627 31.1517 13.477 34.3475 9.62695 34.3475Z" fill="#003347"/>
<path d="M9.62695 14.5642C9.07695 14.5642 8.62695 15.0207 8.62695 15.5787V18.6223C8.62695 19.1803 9.07695 19.6368 9.62695 19.6368C10.177 19.6368 10.627 19.1803 10.627 18.6223V15.5787C10.627 15.0207 10.177 14.5642 9.62695 14.5642Z" fill="#003347"/>
</svg>
